<svg width="24" height="25" viewBox="0 0 24 25" fill="none" xmlns="http://www.w3.org/2000/svg">
<path fill-rule="evenodd" clip-rule="evenodd" d="M8.74555 17.5447C16.461 20.408 22.0536 12.3771 21.9996 12.3511C20.6419 10.5237 19.296 9.17587 17.9822 8.21324L17.0904 9.11418C18.163 9.86947 19.2551 10.9242 20.3486 12.3511C20.393 12.3717 15.9571 18.216 9.78738 16.4921L8.74555 17.5447ZM11.2088 15.0562C11.4608 15.1249 11.7261 15.1616 12 15.1616C13.6569 15.1616 15 13.8185 15 12.1616C15 11.877 14.9604 11.6017 14.8863 11.3409L11.2088 15.0562ZM12.733 9.25182L9.09781 12.9243C9.03398 12.6808 9 12.4252 9 12.1616C9 10.5048 10.3431 9.16162 12 9.16162C12.2529 9.16162 12.4984 9.19291 12.733 9.25182ZM14.2276 7.7419C8.3855 6.19176 3.72702 12.2639 3.67057 12.3511C4.76993 13.5579 5.84727 14.4744 6.89182 15.1529L5.97733 16.0768C4.6896 15.1855 3.35921 13.9684 2 12.3511C2.06903 12.2403 7.8558 3.98714 15.2453 6.71371L14.2276 7.7419Z" fill="#9F9188"/>
</svg>
